<?xml version="1.0" standalone="no"?>
<!DOCTYPE svg PUBLIC "-//W3C//DTD SVG 20010904//EN"
 "http://www.w3.org/TR/2001/REC-SVG-20010904/DTD/svg10.dtd">
<svg version="1.0" xmlns="http://www.w3.org/2000/svg"
 width="320.000000pt" height="320.000000pt" viewBox="0 0 320.000000 320.000000"
 preserveAspectRatio="xMidYMid meet">
<metadata>
Created by potrace 1.11, written by Peter Selinger 2001-2013
</metadata>
<g transform="translate(0.000000,320.000000) scale(0.100000,-0.100000)"
fill="#000000" stroke="none">
<path d="M0 1600 l0 -1600 1600 0 1600 0 0 1600 0 1600 -1600 0 -1600 0 0
-1600z m960 880 l0 -80 -240 0 -240 0 0 80 0 80 240 0 240 0 0 -80z m1440 0
l0 -80 -640 0 -640 0 0 80 0 80 640 0 640 0 0 -80z m320 0 l0 -80 -80 0 -80 0
0 80 0 80 80 0 80 0 0 -80z m-1600 -320 l0 -80 -320 0 -320 0 0 80 0 80 320 0
320 0 0 -80z m1120 0 l0 -80 -480 0 -480 0 0 80 0 80 480 0 480 0 0 -80z m480
0 l0 -80 -160 0 -160 0 0 80 0 80 160 0 160 0 0 -80z m-1440 -320 l0 -80 -400
0 -400 0 0 80 0 80 400 0 400 0 0 -80z m480 0 l0 -80 -160 0 -160 0 0 80 0 80
160 0 160 0 0 -80z m960 0 l0 -80 -400 0 -400 0 0 80 0 80 400 0 400 0 0 -80z
m-1920 -320 l0 -80 -160 0 -160 0 0 80 0 80 160 0 160 0 0 -80z m1280 0 l0
-80 -560 0 -560 0 0 80 0 80 560 0 560 0 0 -80z m640 0 l0 -80 -240 0 -240 0
0 80 0 80 240 0 240 0 0 -80z m-1760 -320 l0 -80 -240 0 -240 0 0 80 0 80 240
0 240 0 0 -80z m960 0 l0 -80 -400 0 -400 0 0 80 0 80 400 0 400 0 0 -80z
m800 0 l0 -80 -320 0 -320 0 0 80 0 80 320 0 320 0 0 -80z m-1280 -320 l0 -80
-480 0 -480 0 0 80 0 80 480 0 480 0 0 -80z m1280 0 l0 -80 -560 0 -560 0 0
80 0 80 560 0 560 0 0 -80z"/>
</g>
</svg>
